<?xml version="1.0" encoding="utf-8"?>
<!-- Generator: Adobe Illustrator 26.0.1, SVG Export Plug-In . SVG Version: 6.00 Build 0)  -->
<svg version="1.1" id="Layer_1" xmlns="http://www.w3.org/2000/svg" xmlns:xlink="http://www.w3.org/1999/xlink" x="0px" y="0px"
	 viewBox="0 0 70.1 70.1" style="enable-background:new 0 0 70.1 70.1;" xml:space="preserve">
<style type="text/css">
	.st0{fill:#9B65C3;}
	.st1{fill:#BE63C5;}
	.st2{fill:#BF63C6;}
	.st3{fill:#3278B1;}
	.st4{fill:#3278B2;}
	.st5{fill:#45A4EC;}
	.st6{fill:#19BB7D;}
	.st7{fill:#08C7FB;}
	.st8{fill:#59F2F6;}
	.st9{fill:#FFA700;}
	.st10{fill:#DA3757;}
	.st11{fill:#D33C4E;}
	.st12{fill:#EE5A24;}
	.st13{fill:#8BDF55;}
	.st14{fill:#25C16F;}
	.st15{fill:#FFBB00;}
	.st16{fill:#FFA800;}
</style>
<g>
	<g>
		<path class="st0" d="M0.4,40.2c1.1,7.6,4.7,14.3,9.9,19.5l11.9-11.9c0-12.1,6.3-23.8,17.5-30.2L0.4,40.2z"/>
	</g>
	<g>
		<g>
			<g>
				<path class="st0" d="M22.2,47.8c-5.9,0-12-1.5-17.5-4.7l0,0c-1.5-0.9-3-1.9-4.3-2.9c1.1,7.6,4.7,14.3,9.9,19.5L22.2,47.8
					L22.2,47.8z"/>
			</g>
		</g>
	</g>
	<g>
		<path class="st1" d="M22.2,47.8L22.2,47.8L10.3,59.7c5.2,5.2,12,8.7,19.6,9.8l22.7-39.2C46.1,41.5,34.3,47.8,22.2,47.8z"/>
	</g>
	<g>
		<g>
			<g>
				<path class="st2" d="M26.9,65.3c-3.2-5.5-4.7-11.5-4.7-17.5L10.3,59.7c5.2,5.2,12,8.7,19.6,9.8C28.8,68.2,27.8,66.8,26.9,65.3
					L26.9,65.3z"/>
			</g>
		</g>
	</g>
	<g>
		<path class="st3" d="M66.7,2l-27,15.6c-11.2,6.5-24.5,6-35,0C1.8,22.7,0,28.6,0,35v0c0,1.8,0.1,3.5,0.4,5.2c1.3,1.1,2.8,2,4.3,2.9
			l0,0c5.5,3.2,11.6,4.7,17.5,4.7l0,0L67.5,2.6C67.2,2.4,67,2.2,66.7,2z"/>
	</g>
	<g>
		<g>
			<g>
				<path class="st4" d="M4.7,43.1c5.5,3.2,11.6,4.7,17.5,4.7c0-12.1,6.3-23.8,17.5-30.2L0.4,40.2C1.8,41.2,3.2,42.2,4.7,43.1
					L4.7,43.1z"/>
			</g>
		</g>
	</g>
	<g>
		<g>
			<g>
				<path class="st5" d="M4.7,17.5C1.8,22.7,0,28.6,0,35v0c0,1.8,0.1,3.5,0.4,5.2l39.3-22.6C28.5,24,15.2,23.6,4.7,17.5z"/>
			</g>
		</g>
	</g>
	<g>
		<path class="st6" d="M67.5,2.6C67.2,2.4,67,2.2,66.7,2c-0.3-0.3-0.7-0.5-1.1-0.7c-1.3-0.7-2.8-1.2-4.4-1.2H35
			c-13,0-24.3,7-30.3,17.5c10.5,6,23.8,6.5,35,0C28.5,24,22.3,35.7,22.2,47.8l0,0c12.1,0,23.8-6.3,30.3-17.5l15.6-27
			C67.9,3.1,67.7,2.9,67.5,2.6z"/>
	</g>
	<g>
		<g>
			<g>
				<path class="st7" d="M39.7,17.5L66.7,2c-0.3-0.3-0.7-0.5-1.1-0.7L4.7,17.5C15.2,23.6,28.5,24,39.7,17.5z"/>
			</g>
		</g>
	</g>
	<g>
		<g>
			<g>
				<path class="st8" d="M61.3,0.1H35c-13,0-24.3,7-30.3,17.5L65.7,1.2C64.4,0.5,62.9,0.1,61.3,0.1z"/>
			</g>
		</g>
	</g>
	<g>
		<g>
			<g>
				<polygon class="st9" points="22.2,47.8 22.2,47.8 22.2,47.8 				"/>
			</g>
		</g>
	</g>
	<g>
		<path class="st10" d="M52.5,30.3l15.6-27c-0.2-0.3-0.4-0.5-0.7-0.7L22.2,47.8l0,0c0,5.9,1.5,12,4.7,17.5l0,0
			c0.9,1.5,1.9,3,2.9,4.3c1.7,0.3,3.4,0.4,5.2,0.4l0,0c6.4,0,12.4-1.7,17.5-4.7C46.5,54.8,46.1,41.5,52.5,30.3z"/>
	</g>
	<g>
		<g>
			<g>
				<path class="st11" d="M22.2,47.8L22.2,47.8c0,5.9,1.5,12,4.7,17.5l0,0c0.9,1.5,1.9,3,2.9,4.3l22.7-39.2
					C46.1,41.5,34.3,47.8,22.2,47.8z"/>
			</g>
		</g>
	</g>
	<g>
		<g>
			<g>
				<path class="st12" d="M52.5,30.3L29.9,69.5c1.7,0.3,3.4,0.4,5.2,0.4h0c6.4,0,12.4-1.7,17.5-4.7C46.5,54.8,46.1,41.5,52.5,30.3z"
					/>
			</g>
		</g>
	</g>
	<g>
		<path class="st13" d="M68.9,4.4c-0.2-0.4-0.5-0.7-0.7-1.1c-0.2-0.3-0.4-0.5-0.7-0.7S67,2.2,66.7,2l-27,15.6
			C28.5,24,22.3,35.7,22.2,47.8l0,0c12.1,0,23.8-6.3,30.3-17.5c-6.5,11.2-6,24.5,0,34.9C63,59.2,70,47.9,70,35V8.8
			C70,7.2,69.6,5.7,68.9,4.4z"/>
	</g>
	<g>
		<g>
			<g>
				<path class="st14" d="M66.7,2l-27,15.6C28.5,24,22.3,35.7,22.2,47.8h0L67.5,2.6C67.2,2.4,67,2.2,66.7,2z"/>
			</g>
		</g>
	</g>
	<g>
		<g>
			<g>
				<path class="st13" d="M22.2,47.8c12.1,0,23.8-6.3,30.3-17.5l15.6-27c-0.2-0.3-0.4-0.5-0.7-0.7L22.2,47.8z"/>
			</g>
		</g>
	</g>
	<g>
		<g>
			<g>
				<path class="st15" d="M68.1,3.4l-15.6,27c-6.5,11.2-6,24.5,0,34.9L68.9,4.4C68.7,4.1,68.4,3.7,68.1,3.4z"/>
			</g>
		</g>
	</g>
	<g>
		<g>
			<g>
				<path class="st16" d="M52.5,65.2C63,59.2,70,47.9,70,35V8.8c0-1.6-0.4-3.1-1.2-4.4L52.5,65.2z"/>
			</g>
		</g>
	</g>
</g>
</svg>
